# xmcd
#
# Track frame offsets:
#	150
#	11075
#	25091
#	48491
#	64020
#	77757
#	97035
#	113006
#	125377
#	144052
#	160697
#	178243
#
# Disc length: 2620 seconds
#
# Revision: 0
# Processed by: cddbd v1.5.1PL2 Copyright (c) Steve Scherf et al.
# Submitted via: dBpowerAMP V4.0
#
DISCID=930a3a0c
DTITLE=John Lee Hooker - That's my story (sings the blues)
DYEAR=1900
DGENRE=Blues
TTITLE0=I need some money
TTITLE1=Come on and see about me
TTITLE2=I'm wanderin'
TTITLE3=Democrat man
TTITLE4=I want to talk about you
TTITLE5=Gonna use my Rod
TTITLE6=Wednesday evenin' blues
TTITLE7=No more dogin'
TTITLE8=on of these days
TTITLE9=I believe i'll go back home
TTITLE10=You're leavin' me, baby
TTITLE11=That's my story
EXTD=
EXTT0=
EXTT1=
EXTT2=
EXTT3=
EXTT4=
EXTT5=
EXTT6=
EXTT7=
EXTT8=
EXTT9=
EXTT10=
EXTT11=
PLAYORDER=
